<svg width="48" height="47" viewBox="0 0 48 47" fill="none" xmlns="http://www.w3.org/2000/svg">
<g clip-path="url(#clip0_1_2)">
<path fill-rule="evenodd" clip-rule="evenodd" d="M23.999 0C10.745 0 0 10.787 0 24.097C0 34.741 6.876 43.772 16.414 46.958C17.614 47.18 18.053 46.436 18.053 45.798C18.053 45.225 18.032 43.71 18.019 41.7C11.343 43.156 9.93402 38.47 9.93402 38.47C8.84402 35.686 7.271 34.945 7.271 34.945C5.091 33.45 7.43597 33.48 7.43597 33.48C9.84297 33.65 11.11 35.963 11.11 35.963C13.253 39.646 16.728 38.583 18.096 37.965C18.313 36.408 18.934 35.346 19.62 34.744C14.29 34.135 8.68799 32.069 8.68799 22.836C8.68799 20.206 9.62202 18.055 11.158 16.37C10.911 15.76 10.088 13.311 11.393 9.99298C11.393 9.99298 13.408 9.34601 17.993 12.463C19.908 11.929 21.96 11.662 24.001 11.652C26.04 11.662 28.093 11.929 30.011 12.463C34.591 9.34601 36.603 9.99298 36.603 9.99298C37.913 13.311 37.089 15.76 36.842 16.37C38.38 18.055 39.309 20.205 39.309 22.836C39.309 32.092 33.698 34.129 28.352 34.726C29.212 35.47 29.981 36.939 29.981 39.188C29.981 42.408 29.951 45.007 29.951 45.798C29.951 46.442 30.383 47.192 31.601 46.955C41.13 43.763 48 34.738 48 24.097C48 10.787 37.254 0 23.999 0Z" fill="white"/>
</g>
<defs>
<clipPath id="clip0_1_2">
<rect width="48" height="47" fill="white"/>
</clipPath>
</defs>
</svg>
