<svg width="310" height="310" viewBox="0 0 310 310" fill="none" xmlns="http://www.w3.org/2000/svg">
<path d="M237.325 54.175C233.666 54.175 230.089 55.26 227.047 57.2928C224.005 59.3256 221.633 62.2149 220.233 65.5954C218.833 68.9758 218.467 72.6955 219.18 76.2842C219.894 79.8728 221.656 83.1692 224.244 85.7565C226.831 88.3437 230.127 90.1057 233.716 90.8195C237.304 91.5333 241.024 91.167 244.405 89.7668C247.785 88.3665 250.674 85.9954 252.707 82.953C254.74 79.9107 255.825 76.3339 255.825 72.675C255.825 67.7685 253.876 63.0629 250.406 59.5935C246.937 56.1241 242.232 54.175 237.325 54.175ZM308.242 91.4833C307.942 78.6921 305.546 66.0366 301.15 54.0208C297.23 43.74 291.129 34.4305 283.267 26.7333C275.633 18.8311 266.302 12.7685 255.979 9.00416C243.995 4.47414 231.326 2.02365 218.517 1.75833C202.175 0.833327 196.933 0.833328 155 0.833328C113.067 0.833328 107.825 0.833327 91.4833 1.75833C78.6744 2.02365 66.0049 4.47414 54.0208 9.00416C43.7175 12.8067 34.3944 18.8641 26.7333 26.7333C18.8311 34.3673 12.7685 43.6984 9.00416 54.0208C4.47414 66.0049 2.02365 78.6744 1.75833 91.4833C0.833327 107.825 0.833328 113.067 0.833328 155C0.833328 196.933 0.833327 202.175 1.75833 218.517C2.02365 231.326 4.47414 243.995 9.00416 255.979C12.7685 266.302 18.8311 275.633 26.7333 283.267C34.3944 291.136 43.7175 297.193 54.0208 300.996C66.0049 305.526 78.6744 307.976 91.4833 308.242C107.825 309.167 113.067 309.167 155 309.167C196.933 309.167 202.175 309.167 218.517 308.242C231.326 307.976 243.995 305.526 255.979 300.996C266.302 297.231 275.633 291.169 283.267 283.267C291.164 275.598 297.27 266.28 301.15 255.979C305.546 243.963 307.942 231.308 308.242 218.517C308.242 202.175 309.167 196.933 309.167 155C309.167 113.067 309.167 107.825 308.242 91.4833ZM280.492 216.667C280.379 226.453 278.607 236.149 275.25 245.342C272.788 252.051 268.835 258.113 263.687 263.071C258.687 268.166 252.637 272.112 245.958 274.633C236.765 277.99 227.069 279.763 217.283 279.875C201.867 280.646 196.163 280.8 155.617 280.8C115.071 280.8 109.367 280.8 93.95 279.875C83.7887 280.065 73.6708 278.501 64.0417 275.25C57.6558 272.6 51.8834 268.664 47.0833 263.687C41.9664 258.735 38.0622 252.668 35.675 245.958C31.9111 236.634 29.8235 226.717 29.5083 216.667C29.5083 201.25 28.5833 195.546 28.5833 155C28.5833 114.454 28.5833 108.75 29.5083 93.3333C29.5774 83.3288 31.4038 73.4142 34.9042 64.0417C37.6182 57.5345 41.7841 51.7339 47.0833 47.0833C51.7671 41.7826 57.5557 37.5727 64.0417 34.75C73.4389 31.359 83.3433 29.5866 93.3333 29.5083C108.75 29.5083 114.454 28.5833 155 28.5833C195.546 28.5833 201.25 28.5833 216.667 29.5083C226.453 29.6206 236.149 31.393 245.342 34.75C252.347 37.3501 258.635 41.5772 263.687 47.0833C268.74 51.819 272.687 57.6088 275.25 64.0417C278.676 73.4294 280.45 83.3399 280.492 93.3333C281.262 108.75 281.417 114.454 281.417 155C281.417 195.546 281.262 201.25 280.492 216.667ZM155 75.9125C139.365 75.943 124.089 80.6073 111.103 89.316C98.1178 98.0248 88.005 110.387 82.0427 124.841C76.0804 139.295 74.5362 155.192 77.6052 170.523C80.6742 185.855 88.2186 199.932 99.2853 210.978C110.352 222.023 124.444 229.54 139.782 232.579C155.119 235.618 171.013 234.043 185.455 228.052C199.898 222.062 212.24 211.925 220.924 198.923C229.607 185.92 234.242 170.635 234.242 155C234.262 144.595 232.225 134.289 228.248 124.675C224.271 115.06 218.433 106.327 211.068 98.9766C203.704 91.6266 194.959 85.805 185.337 81.8468C175.715 77.8886 165.405 75.8718 155 75.9125ZM155 206.337C144.846 206.337 134.921 203.327 126.478 197.686C118.036 192.045 111.456 184.027 107.57 174.646C103.685 165.265 102.668 154.943 104.649 144.985C106.63 135.026 111.519 125.879 118.699 118.699C125.879 111.519 135.026 106.63 144.985 104.649C154.943 102.668 165.265 103.685 174.646 107.57C184.027 111.456 192.045 118.036 197.686 126.478C203.327 134.921 206.337 144.846 206.337 155C206.337 161.742 205.01 168.417 202.43 174.646C199.85 180.875 196.068 186.534 191.301 191.301C186.534 196.068 180.875 199.85 174.646 202.43C168.417 205.01 161.742 206.337 155 206.337Z" fill="white"/>
</svg>
