<svg width="280" height="328" viewBox="0 0 280 328" fill="none" xmlns="http://www.w3.org/2000/svg">
<path d="M45.8667 26.6667C42.4 28 38.6667 33.0667 38.6667 36.2667C38.6667 40.2667 41.4667 44.9333 44.9333 46.5333C47.2 47.6 75.8667 48 141.2 48C233.333 48 234.4 48 237.867 45.2C240.4 43.2 241.333 41.2 241.333 37.8667C241.333 31.4667 239.467 28.5333 234.533 26.8C229.333 25.0667 50.2667 24.9333 45.8667 26.6667Z" fill="#FFBB00"/>
<path d="M43.8667 111.067C38.1333 115.467 37.3333 122.267 41.8667 127.6L45.0667 131.333L136.267 131.733C186.267 132 229.333 131.733 231.733 131.333C238.133 130.133 241.333 126.4 241.333 120.133C241.333 116 240.533 114.267 237.867 112.133C234.4 109.333 233.467 109.333 140.133 109.333C68.2667 109.467 45.4667 109.867 43.8667 111.067Z" fill="#FFBB00"/>
<path d="M45.7333 194C38.1333 197.333 36.6666 206 42.6666 212C45.3333 214.667 47.4666 214.667 139.867 214.667C233.333 214.667 234.4 214.667 237.867 211.867C241.6 208.933 242.667 202.133 240 197.333C237.2 192.267 233.2 192 140.133 192C65.4666 192.133 49.2 192.4 45.7333 194Z" fill="#FFBB00"/>
<path d="M42.5333 279.867C37.7333 284.667 37.6 289.2 41.8667 294.267L45.0667 298L137.6 298.4C188.4 298.533 231.333 298.4 233.067 298C241.333 296 244.267 285.467 238 279.333L234.8 276H140.667H46.4L42.5333 279.867Z" fill="#FFBB00"/>
</svg>
