<svg width="24" height="24" viewBox="0 0 24 24" fill="none" xmlns="http://www.w3.org/2000/svg">
<path d="M21.9453 2.76465C21.506 2.40033 20.9021 2.30658 20.373 2.52051L2.45604 9.75391C1.6679 10.0783 1.29198 10.9802 1.61638 11.7683C1.78417 12.1759 2.11815 12.4923 2.53417 12.6377L6.3994 13.9814L8.49413 20.9072C8.49834 20.9213 8.51128 20.9299 8.51671 20.9435C8.53838 20.9987 8.57006 21.0496 8.61003 21.0934C8.62493 21.111 8.64116 21.1276 8.6585 21.1428C8.71068 21.1862 8.77129 21.2182 8.83647 21.2369C8.84642 21.2398 8.85308 21.2487 8.86321 21.251L8.86907 21.2507L8.872 21.252C8.90538 21.2594 8.93944 21.263 8.97356 21.2627C9.01818 21.2611 9.06243 21.2534 9.10491 21.2398C9.11315 21.2376 9.12145 21.2382 9.1295 21.2355C9.20208 21.2099 9.26763 21.1678 9.32103 21.1126C9.32726 21.1063 9.33672 21.1052 9.3427 21.0986L12.3564 17.7734L16.7529 21.1777C17.02 21.3866 17.3494 21.5001 17.6884 21.5C18.4218 21.4999 19.0549 20.9861 19.206 20.2686L22.4687 4.25098C22.5818 3.6969 22.3805 3.12561 21.9453 2.76465ZM9.58788 15.2949L8.88066 18.7317L7.40581 13.8539L14.7207 10.0449L9.72362 15.042C9.65453 15.1111 9.60735 15.1991 9.58788 15.2949ZM18.2266 20.0674C18.1882 20.2515 18.0569 20.4024 17.8799 20.4658C17.7069 20.5324 17.5116 20.5027 17.3662 20.3877L12.6025 16.6992C12.3963 16.5396 12.1019 16.5655 11.9267 16.7588L9.8311 19.071L10.5371 15.6436L17.7256 8.4541C17.9209 8.2591 17.9213 7.94269 17.7262 7.74738C17.572 7.59277 17.3353 7.55628 17.1416 7.65723L6.77825 13.0539L2.86132 11.6924C2.64781 11.6221 2.50261 11.424 2.49999 11.1992C2.48967 10.9729 2.62364 10.7648 2.83397 10.6807L20.748 3.44824C20.9352 3.36884 21.1511 3.4021 21.3057 3.53418C21.4595 3.65833 21.5301 3.85858 21.4883 4.05176L18.2266 20.0674Z" fill="white"/>
</svg>
