<svg width="203" height="189" viewBox="0 0 203 189" fill="none" xmlns="http://www.w3.org/2000/svg">
<path d="M56.6475 1.69426C52.3983 5.99508 51.8054 12.6418 55.1652 17.8549L57.5369 21.5041L125.13 21.8951C162.187 22.1557 194.106 21.8951 195.885 21.5041C200.628 20.3311 203 16.682 203 10.5566C203 6.51639 202.407 4.82213 200.431 2.73689C197.861 7.09522e-07 197.17 7.09522e-07 127.996 7.09522e-07C74.7316 0.130329 57.8334 0.521312 56.6475 1.69426Z" fill="white"/>
<path d="M7.06666 84.5686C-0.533343 87.9019 -2.00001 96.5686 3.99999 102.569C6.66666 105.235 8.79999 105.235 101.2 105.235C194.667 105.235 195.733 105.235 199.2 102.435C202.933 99.5019 204 92.7019 201.333 87.9019C198.533 82.8353 194.533 82.5686 101.467 82.5686C26.8 82.7019 10.5333 82.9686 7.06666 84.5686Z" fill="white"/>
<path d="M55.7692 170.789C52.2151 175.493 52.1164 179.935 55.2756 184.901L57.645 188.559L126.161 188.951C163.776 189.082 195.566 188.951 196.849 188.559C202.97 186.599 205.142 176.277 200.502 170.267L198.133 167H128.432H58.6323L55.7692 170.789Z" fill="white"/>
</svg>
